<svg width="24" height="23" viewBox="0 0 24 23" fill="none" xmlns="http://www.w3.org/2000/svg">
<path d="M15.8334 8.94439H15.1945V7.66661C15.1945 5.90328 13.7634 4.47217 12 4.47217C10.2367 4.47217 8.80558 5.90328 8.80558 7.66661V8.94439H8.16669C7.46392 8.94439 6.88892 9.51939 6.88892 10.2222V16.6111C6.88892 17.3138 7.46392 17.8888 8.16669 17.8888H15.8334C16.5361 17.8888 17.1111 17.3138 17.1111 16.6111V10.2222C17.1111 9.51939 16.5361 8.94439 15.8334 8.94439ZM12 14.6944C11.2972 14.6944 10.7222 14.1194 10.7222 13.4166C10.7222 12.7138 11.2972 12.1388 12 12.1388C12.7028 12.1388 13.2778 12.7138 13.2778 13.4166C13.2778 14.1194 12.7028 14.6944 12 14.6944ZM13.9806 8.94439H10.0195V7.66661C10.0195 6.57411 10.9075 5.68606 12 5.68606C13.0925 5.68606 13.9806 6.57411 13.9806 7.66661V8.94439Z" fill="#9B9B9B"/>
<path fill-rule="evenodd" clip-rule="evenodd" d="M12 21.6471C17.6041 21.6471 22.1471 17.1041 22.1471 11.5C22.1471 5.89593 17.6041 1.35294 12 1.35294C6.39593 1.35294 1.85294 5.89593 1.85294 11.5C1.85294 17.1041 6.39593 21.6471 12 21.6471ZM12 23C18.3513 23 23.5 17.8513 23.5 11.5C23.5 5.14873 18.3513 0 12 0C5.64873 0 0.5 5.14873 0.5 11.5C0.5 17.8513 5.64873 23 12 23Z" fill="#9B9B9B"/>
</svg>
